<svg width="168" height="91" viewBox="0 0 168 91" fill="none" xmlns="http://www.w3.org/2000/svg">
<path d="M160.994 42.588C160.994 40.8483 162.414 39.4404 164.168 39.4404C165.923 39.4404 167.348 40.8483 167.348 42.588V48.412C167.348 50.1517 165.923 51.5595 164.168 51.5595C162.414 51.5595 160.994 50.1517 160.994 48.412V42.588ZM148.47 51.961C148.47 53.7007 149.89 55.1085 151.644 55.1085C153.399 55.1085 154.824 53.7007 154.824 51.961V39.039C154.824 37.2993 153.399 35.8915 151.644 35.8915C149.89 35.8915 148.47 37.2993 148.47 39.039V51.961ZM136.156 61.9014C136.156 63.6411 137.576 65.0543 139.331 65.0543C141.085 65.0543 142.51 63.6411 142.51 61.9014V29.0986C142.51 27.3589 141.085 25.9457 139.331 25.9457C137.576 25.9457 136.156 27.3589 136.156 29.0986V61.9014ZM124.447 72.7143C124.447 72.7143 124.453 72.7251 124.464 72.7251H127.627C129.382 72.7251 130.801 71.3172 130.801 69.5775V21.7811C130.801 20.0414 129.382 18.6336 127.627 18.6336C125.873 18.6336 124.447 20.0414 124.447 21.7811V72.7143ZM111.918 56.3665C111.918 58.1062 113.338 59.514 115.092 59.514C116.847 59.514 118.272 58.1062 118.272 56.3665V34.6335C118.272 32.8938 116.847 31.486 115.092 31.486C113.338 31.486 111.918 32.8938 111.918 34.6335V56.3665ZM99.1833 80.7277C102.698 80.7277 105.543 77.9067 105.543 74.4219V12.2368C105.543 10.4917 104.112 9.07327 102.352 9.07327C100.592 9.07327 99.1671 10.4917 99.1671 12.2368V80.7063C99.1671 80.717 99.1725 80.7277 99.1833 80.7277ZM86.6592 87.8471C86.6592 89.5868 88.079 91 89.8334 91C91.5879 91 93.0131 89.5868 93.0131 87.8471V3.15291C93.0131 1.4132 91.5879 0 89.8334 0C88.079 0 86.6592 1.4132 86.6592 3.15291V87.8471ZM74.3457 76.9539V76.9485H77.5199C79.2743 76.9485 80.6995 75.5407 80.6995 73.801V17.199C80.6995 15.4593 79.2743 14.0461 77.5199 14.0461C75.7654 14.0461 74.3457 15.4593 74.3457 17.199V76.9539ZM61.6045 55.9382C61.6045 57.6779 63.027 59.0857 64.7798 59.0857C66.5397 59.0857 67.9594 57.6779 67.9594 55.9382V35.7255C67.9594 33.9858 66.5397 32.5727 64.7798 32.5727C63.027 32.5727 61.6045 33.9858 61.6045 35.7255V55.9382ZM49.291 52.7907C49.291 52.78 49.3018 52.7693 49.3153 52.7693H52.4684C54.224 52.7693 55.6464 51.3561 55.6464 49.6164V41.3622C55.6464 39.6225 54.224 38.2093 52.4684 38.2093C50.7134 38.2093 49.291 39.6225 49.291 41.3622V52.7907ZM36.9769 60.5685L36.9866 60.5578H40.1549C41.9099 60.5578 43.3323 59.1446 43.3323 57.4049V33.5844C43.3323 31.8447 41.9099 30.4315 40.1549 30.4315C38.3999 30.4315 36.9769 31.8447 36.9769 33.5844V60.5685ZM24.862 75.1499L24.8722 75.1392H28.0934C29.8187 75.1392 31.2174 73.7528 31.2174 72.0398V17.29C31.2174 15.5503 29.7944 14.1372 28.0399 14.1372C26.285 14.1372 24.862 15.5503 24.862 17.29V75.1499ZM12.5484 65.8305L12.5587 65.8198H15.7259C17.4808 65.8198 18.9038 64.4066 18.9038 62.6669V27.8086C18.9038 26.0689 17.4808 24.6557 15.7259 24.6557C13.9709 24.6557 12.5484 26.0689 12.5484 27.8086V65.8305ZM0 51.961C0 53.7007 1.42299 55.1085 3.17799 55.1085C4.93298 55.1085 6.35544 53.7007 6.35544 51.961V39.039C6.35544 37.2993 4.93298 35.8915 3.17799 35.8915C1.42299 35.8915 0 37.2993 0 39.039V51.961Z" fill="white"/>
</svg>
