<svg width="310" height="66" viewBox="0 0 310 66" fill="none" xmlns="http://www.w3.org/2000/svg">
<path d="M16 0.5H294C302.56 0.500002 309.5 7.43959 309.5 16V65.5H16C7.43959 65.5 0.5 58.5604 0.5 50V16C0.5 7.57345 7.22424 0.717247 15.5996 0.504883L16 0.5Z" fill="white" fill-opacity="0.5" style="mix-blend-mode:lighten"/>
<path d="M16 0.5H294C302.56 0.500002 309.5 7.43959 309.5 16V65.5H16C7.43959 65.5 0.5 58.5604 0.5 50V16C0.5 7.57345 7.22424 0.717247 15.5996 0.504883L16 0.5Z" stroke="url(#paint0_linear_80_53)" style="mix-blend-mode:overlay"/>
<path d="M21.8438 21.7051V23.085H14.918V21.7051H21.8438ZM15.1816 16.2031V29H13.4854V16.2031H15.1816ZM23.3203 16.2031V29H21.6328V16.2031H23.3203ZM25.6582 24.3506V24.1484C25.6582 23.4629 25.7578 22.8271 25.957 22.2412C26.1562 21.6494 26.4434 21.1367 26.8184 20.7031C27.1934 20.2637 27.6475 19.9238 28.1807 19.6836C28.7139 19.4375 29.3115 19.3145 29.9736 19.3145C30.6416 19.3145 31.2422 19.4375 31.7754 19.6836C32.3145 19.9238 32.7715 20.2637 33.1465 20.7031C33.5273 21.1367 33.8174 21.6494 34.0166 22.2412C34.2158 22.8271 34.3154 23.4629 34.3154 24.1484V24.3506C34.3154 25.0361 34.2158 25.6719 34.0166 26.2578C33.8174 26.8438 33.5273 27.3564 33.1465 27.7959C32.7715 28.2295 32.3174 28.5693 31.7842 28.8154C31.2568 29.0557 30.6592 29.1758 29.9912 29.1758C29.3232 29.1758 28.7227 29.0557 28.1895 28.8154C27.6562 28.5693 27.1992 28.2295 26.8184 27.7959C26.4434 27.3564 26.1562 26.8438 25.957 26.2578C25.7578 25.6719 25.6582 25.0361 25.6582 24.3506ZM27.2842 24.1484V24.3506C27.2842 24.8252 27.3398 25.2734 27.4512 25.6953C27.5625 26.1113 27.7295 26.4805 27.9521 26.8027C28.1807 27.125 28.4648 27.3799 28.8047 27.5674C29.1445 27.749 29.54 27.8398 29.9912 27.8398C30.4365 27.8398 30.8262 27.749 31.1602 27.5674C31.5 27.3799 31.7812 27.125 32.0039 26.8027C32.2266 26.4805 32.3936 26.1113 32.5049 25.6953C32.6221 25.2734 32.6807 24.8252 32.6807 24.3506V24.1484C32.6807 23.6797 32.6221 23.2373 32.5049 22.8213C32.3936 22.3994 32.2236 22.0273 31.9951 21.7051C31.7725 21.377 31.4912 21.1191 31.1514 20.9316C30.8174 20.7441 30.4248 20.6504 29.9736 20.6504C29.5283 20.6504 29.1357 20.7441 28.7959 20.9316C28.4619 21.1191 28.1807 21.377 27.9521 21.7051C27.7295 22.0273 27.5625 22.3994 27.4512 22.8213C27.3398 23.2373 27.2842 23.6797 27.2842 24.1484ZM38.7627 27.3125L41.2061 19.4902H42.2783L42.0674 21.0459L39.5801 29H38.5342L38.7627 27.3125ZM37.1191 19.4902L39.2021 27.4004L39.3516 29H38.2529L35.4932 19.4902H37.1191ZM44.6162 27.3389L46.6025 19.4902H48.2197L45.46 29H44.3701L44.6162 27.3389ZM42.5156 19.4902L44.9062 27.1807L45.1787 29H44.1416L41.584 21.0283L41.373 19.4902H42.5156ZM58.1602 27.8398C58.5469 27.8398 58.9043 27.7607 59.2324 27.6025C59.5605 27.4443 59.8301 27.2275 60.041 26.9521C60.252 26.6709 60.3721 26.3516 60.4014 25.9941H61.9482C61.9189 26.5566 61.7285 27.0811 61.377 27.5674C61.0312 28.0479 60.5771 28.4375 60.0146 28.7363C59.4521 29.0293 58.834 29.1758 58.1602 29.1758C57.4453 29.1758 56.8213 29.0498 56.2881 28.7979C55.7607 28.5459 55.3213 28.2002 54.9697 27.7607C54.624 27.3213 54.3633 26.8174 54.1875 26.249C54.0176 25.6748 53.9326 25.0684 53.9326 24.4297V24.0605C53.9326 23.4219 54.0176 22.8184 54.1875 22.25C54.3633 21.6758 54.624 21.1689 54.9697 20.7295C55.3213 20.29 55.7607 19.9443 56.2881 19.6924C56.8213 19.4404 57.4453 19.3145 58.1602 19.3145C58.9043 19.3145 59.5547 19.4668 60.1113 19.7715C60.668 20.0703 61.1045 20.4805 61.4209 21.002C61.7432 21.5176 61.9189 22.1035 61.9482 22.7598H60.4014C60.3721 22.3672 60.2607 22.0127 60.0674 21.6963C59.8799 21.3799 59.6221 21.1279 59.2939 20.9404C58.9717 20.7471 58.5938 20.6504 58.1602 20.6504C57.6621 20.6504 57.2432 20.75 56.9033 20.9492C56.5693 21.1426 56.3027 21.4062 56.1035 21.7402C55.9102 22.0684 55.7695 22.4346 55.6816 22.8389C55.5996 23.2373 55.5586 23.6445 55.5586 24.0605V24.4297C55.5586 24.8457 55.5996 25.2559 55.6816 25.6602C55.7637 26.0645 55.9014 26.4307 56.0947 26.7588C56.2939 27.0869 56.5605 27.3506 56.8945 27.5498C57.2344 27.7432 57.6562 27.8398 58.1602 27.8398ZM69.3838 27.374V22.4785C69.3838 22.1035 69.3076 21.7783 69.1553 21.5029C69.0088 21.2217 68.7861 21.0049 68.4873 20.8525C68.1885 20.7002 67.8193 20.624 67.3799 20.624C66.9697 20.624 66.6094 20.6943 66.2988 20.835C65.9941 20.9756 65.7539 21.1602 65.5781 21.3887C65.4082 21.6172 65.3232 21.8633 65.3232 22.127H63.6973C63.6973 21.7871 63.7852 21.4502 63.9609 21.1162C64.1367 20.7822 64.3887 20.4805 64.7168 20.2109C65.0508 19.9355 65.4492 19.7188 65.9121 19.5605C66.3809 19.3965 66.9023 19.3145 67.4766 19.3145C68.168 19.3145 68.7773 19.4316 69.3047 19.666C69.8379 19.9004 70.2539 20.2549 70.5527 20.7295C70.8574 21.1982 71.0098 21.7871 71.0098 22.4961V26.9258C71.0098 27.2422 71.0361 27.5791 71.0889 27.9365C71.1475 28.2939 71.2324 28.6016 71.3438 28.8594V29H69.6475C69.5654 28.8125 69.501 28.5635 69.4541 28.2529C69.4072 27.9365 69.3838 27.6436 69.3838 27.374ZM69.665 23.2344L69.6826 24.377H68.0391C67.5762 24.377 67.1631 24.415 66.7998 24.4912C66.4365 24.5615 66.1318 24.6699 65.8857 24.8164C65.6396 24.9629 65.4521 25.1475 65.3232 25.3701C65.1943 25.5869 65.1299 25.8418 65.1299 26.1348C65.1299 26.4336 65.1973 26.7061 65.332 26.9521C65.4668 27.1982 65.6689 27.3945 65.9385 27.541C66.2139 27.6816 66.5508 27.752 66.9492 27.752C67.4473 27.752 67.8867 27.6465 68.2676 27.4355C68.6484 27.2246 68.9502 26.9668 69.1729 26.6621C69.4014 26.3574 69.5244 26.0615 69.542 25.7744L70.2363 26.5566C70.1953 26.8027 70.084 27.0752 69.9023 27.374C69.7207 27.6729 69.4775 27.96 69.1729 28.2354C68.874 28.5049 68.5166 28.7305 68.1006 28.9121C67.6904 29.0879 67.2275 29.1758 66.7119 29.1758C66.0674 29.1758 65.502 29.0498 65.0156 28.7979C64.5352 28.5459 64.1602 28.209 63.8906 27.7871C63.627 27.3594 63.4951 26.8818 63.4951 26.3545C63.4951 25.8447 63.5947 25.3965 63.7939 25.0098C63.9932 24.6172 64.2803 24.292 64.6553 24.0342C65.0303 23.7705 65.4814 23.5713 66.0088 23.4365C66.5361 23.3018 67.125 23.2344 67.7754 23.2344H69.665ZM75.1934 21.5205V29H73.5674V19.4902H75.1055L75.1934 21.5205ZM74.8066 23.8848L74.1299 23.8584C74.1357 23.208 74.2324 22.6074 74.4199 22.0566C74.6074 21.5 74.8711 21.0166 75.2109 20.6064C75.5508 20.1963 75.9551 19.8799 76.4238 19.6572C76.8984 19.4287 77.4229 19.3145 77.9971 19.3145C78.4658 19.3145 78.8877 19.3789 79.2627 19.5078C79.6377 19.6309 79.957 19.8301 80.2207 20.1055C80.4902 20.3809 80.6953 20.7383 80.8359 21.1777C80.9766 21.6113 81.0469 22.1416 81.0469 22.7686V29H79.4121V22.751C79.4121 22.2529 79.3389 21.8545 79.1924 21.5557C79.0459 21.251 78.832 21.0312 78.5508 20.8965C78.2695 20.7559 77.9238 20.6855 77.5137 20.6855C77.1094 20.6855 76.7402 20.7705 76.4062 20.9404C76.0781 21.1104 75.7939 21.3447 75.5537 21.6436C75.3193 21.9424 75.1348 22.2852 75 22.6719C74.8711 23.0527 74.8066 23.457 74.8066 23.8848ZM90.0469 16.2031V29H88.3506V16.2031H90.0469ZM98.9766 15.5V29H97.3506V15.5H98.9766ZM98.5898 23.8848L97.9131 23.8584C97.9189 23.208 98.0156 22.6074 98.2031 22.0566C98.3906 21.5 98.6543 21.0166 98.9941 20.6064C99.334 20.1963 99.7383 19.8799 100.207 19.6572C100.682 19.4287 101.206 19.3145 101.78 19.3145C102.249 19.3145 102.671 19.3789 103.046 19.5078C103.421 19.6309 103.74 19.8301 104.004 20.1055C104.273 20.3809 104.479 20.7383 104.619 21.1777C104.76 21.6113 104.83 22.1416 104.83 22.7686V29H103.195V22.751C103.195 22.2529 103.122 21.8545 102.976 21.5557C102.829 21.251 102.615 21.0312 102.334 20.8965C102.053 20.7559 101.707 20.6855 101.297 20.6855C100.893 20.6855 100.523 20.7705 100.189 20.9404C99.8613 21.1104 99.5771 21.3447 99.3369 21.6436C99.1025 21.9424 98.918 22.2852 98.7832 22.6719C98.6543 23.0527 98.5898 23.457 98.5898 23.8848ZM111.211 29.1758C110.549 29.1758 109.948 29.0645 109.409 28.8418C108.876 28.6133 108.416 28.2939 108.029 27.8838C107.648 27.4736 107.355 26.9873 107.15 26.4248C106.945 25.8623 106.843 25.2471 106.843 24.5791V24.21C106.843 23.4365 106.957 22.748 107.186 22.1445C107.414 21.5352 107.725 21.0195 108.117 20.5977C108.51 20.1758 108.955 19.8564 109.453 19.6396C109.951 19.4229 110.467 19.3145 111 19.3145C111.68 19.3145 112.266 19.4316 112.758 19.666C113.256 19.9004 113.663 20.2285 113.979 20.6504C114.296 21.0664 114.53 21.5586 114.683 22.127C114.835 22.6895 114.911 23.3047 114.911 23.9727V24.7021H107.81V23.375H113.285V23.252C113.262 22.8301 113.174 22.4199 113.021 22.0215C112.875 21.623 112.641 21.2949 112.318 21.0371C111.996 20.7793 111.557 20.6504 111 20.6504C110.631 20.6504 110.291 20.7295 109.98 20.8877C109.67 21.04 109.403 21.2686 109.181 21.5732C108.958 21.8779 108.785 22.25 108.662 22.6895C108.539 23.1289 108.478 23.6357 108.478 24.21V24.5791C108.478 25.0303 108.539 25.4551 108.662 25.8535C108.791 26.2461 108.976 26.5918 109.216 26.8906C109.462 27.1895 109.758 27.4238 110.104 27.5938C110.455 27.7637 110.854 27.8486 111.299 27.8486C111.873 27.8486 112.359 27.7314 112.758 27.4971C113.156 27.2627 113.505 26.9492 113.804 26.5566L114.788 27.3389C114.583 27.6494 114.322 27.9453 114.006 28.2266C113.689 28.5078 113.3 28.7363 112.837 28.9121C112.38 29.0879 111.838 29.1758 111.211 29.1758ZM118.576 15.5V29H116.941V15.5H118.576ZM122.812 21.3184V32.6562H121.178V19.4902H122.672L122.812 21.3184ZM129.22 24.166V24.3506C129.22 25.042 129.138 25.6836 128.974 26.2754C128.81 26.8613 128.569 27.3711 128.253 27.8047C127.942 28.2383 127.559 28.5752 127.102 28.8154C126.645 29.0557 126.12 29.1758 125.528 29.1758C124.925 29.1758 124.392 29.0762 123.929 28.877C123.466 28.6777 123.073 28.3877 122.751 28.0068C122.429 27.626 122.171 27.1689 121.978 26.6357C121.79 26.1025 121.661 25.502 121.591 24.834V23.8496C121.661 23.1465 121.793 22.5166 121.986 21.96C122.18 21.4033 122.435 20.9287 122.751 20.5361C123.073 20.1377 123.463 19.8359 123.92 19.6309C124.377 19.4199 124.904 19.3145 125.502 19.3145C126.1 19.3145 126.63 19.4316 127.093 19.666C127.556 19.8945 127.945 20.2227 128.262 20.6504C128.578 21.0781 128.815 21.5908 128.974 22.1885C129.138 22.7803 129.22 23.4395 129.22 24.166ZM127.585 24.3506V24.166C127.585 23.6914 127.535 23.2461 127.436 22.8301C127.336 22.4082 127.181 22.0391 126.97 21.7227C126.765 21.4004 126.501 21.1484 126.179 20.9668C125.856 20.7793 125.473 20.6855 125.027 20.6855C124.617 20.6855 124.26 20.7559 123.955 20.8965C123.656 21.0371 123.401 21.2275 123.19 21.4678C122.979 21.7021 122.807 21.9717 122.672 22.2764C122.543 22.5752 122.446 22.8857 122.382 23.208V25.4844C122.499 25.8945 122.663 26.2812 122.874 26.6445C123.085 27.002 123.366 27.292 123.718 27.5146C124.069 27.7314 124.512 27.8398 125.045 27.8398C125.484 27.8398 125.862 27.749 126.179 27.5674C126.501 27.3799 126.765 27.125 126.97 26.8027C127.181 26.4805 127.336 26.1113 127.436 25.6953C127.535 25.2734 127.585 24.8252 127.585 24.3506ZM138.431 28.0156L141.076 19.4902H142.816L139.002 30.4678C138.914 30.7021 138.797 30.9541 138.65 31.2236C138.51 31.499 138.328 31.7598 138.105 32.0059C137.883 32.252 137.613 32.4512 137.297 32.6035C136.986 32.7617 136.614 32.8408 136.181 32.8408C136.052 32.8408 135.888 32.8232 135.688 32.7881C135.489 32.7529 135.349 32.7236 135.267 32.7002L135.258 31.3818C135.305 31.3877 135.378 31.3936 135.478 31.3994C135.583 31.4111 135.656 31.417 135.697 31.417C136.066 31.417 136.38 31.3672 136.638 31.2676C136.896 31.1738 137.112 31.0127 137.288 30.7842C137.47 30.5615 137.625 30.2539 137.754 29.8613L138.431 28.0156ZM136.488 19.4902L138.958 26.873L139.38 28.5869L138.211 29.1846L134.713 19.4902H136.488ZM143.713 24.3506V24.1484C143.713 23.4629 143.812 22.8271 144.012 22.2412C144.211 21.6494 144.498 21.1367 144.873 20.7031C145.248 20.2637 145.702 19.9238 146.235 19.6836C146.769 19.4375 147.366 19.3145 148.028 19.3145C148.696 19.3145 149.297 19.4375 149.83 19.6836C150.369 19.9238 150.826 20.2637 151.201 20.7031C151.582 21.1367 151.872 21.6494 152.071 22.2412C152.271 22.8271 152.37 23.4629 152.37 24.1484V24.3506C152.37 25.0361 152.271 25.6719 152.071 26.2578C151.872 26.8438 151.582 27.3564 151.201 27.7959C150.826 28.2295 150.372 28.5693 149.839 28.8154C149.312 29.0557 148.714 29.1758 148.046 29.1758C147.378 29.1758 146.777 29.0557 146.244 28.8154C145.711 28.5693 145.254 28.2295 144.873 27.7959C144.498 27.3564 144.211 26.8438 144.012 26.2578C143.812 25.6719 143.713 25.0361 143.713 24.3506ZM145.339 24.1484V24.3506C145.339 24.8252 145.395 25.2734 145.506 25.6953C145.617 26.1113 145.784 26.4805 146.007 26.8027C146.235 27.125 146.52 27.3799 146.859 27.5674C147.199 27.749 147.595 27.8398 148.046 27.8398C148.491 27.8398 148.881 27.749 149.215 27.5674C149.555 27.3799 149.836 27.125 150.059 26.8027C150.281 26.4805 150.448 26.1113 150.56 25.6953C150.677 25.2734 150.735 24.8252 150.735 24.3506V24.1484C150.735 23.6797 150.677 23.2373 150.56 22.8213C150.448 22.3994 150.278 22.0273 150.05 21.7051C149.827 21.377 149.546 21.1191 149.206 20.9316C148.872 20.7441 148.479 20.6504 148.028 20.6504C147.583 20.6504 147.19 20.7441 146.851 20.9316C146.517 21.1191 146.235 21.377 146.007 21.7051C145.784 22.0273 145.617 22.3994 145.506 22.8213C145.395 23.2373 145.339 23.6797 145.339 24.1484ZM160.228 26.8027V19.4902H161.862V29H160.307L160.228 26.8027ZM160.535 24.7988L161.212 24.7812C161.212 25.4141 161.145 26 161.01 26.5391C160.881 27.0723 160.67 27.5352 160.377 27.9277C160.084 28.3203 159.7 28.6279 159.226 28.8506C158.751 29.0674 158.174 29.1758 157.494 29.1758C157.031 29.1758 156.606 29.1084 156.22 28.9736C155.839 28.8389 155.511 28.6309 155.235 28.3496C154.96 28.0684 154.746 27.7021 154.594 27.251C154.447 26.7998 154.374 26.2578 154.374 25.625V19.4902H156V25.6426C156 26.0703 156.047 26.4248 156.141 26.7061C156.24 26.9814 156.372 27.2012 156.536 27.3652C156.706 27.5234 156.894 27.6348 157.099 27.6992C157.31 27.7637 157.526 27.7959 157.749 27.7959C158.44 27.7959 158.988 27.6641 159.393 27.4004C159.797 27.1309 160.087 26.7705 160.263 26.3193C160.444 25.8623 160.535 25.3555 160.535 24.7988ZM171.214 27.3125L173.657 19.4902H174.729L174.519 21.0459L172.031 29H170.985L171.214 27.3125ZM169.57 19.4902L171.653 27.4004L171.803 29H170.704L167.944 19.4902H169.57ZM177.067 27.3389L179.054 19.4902H180.671L177.911 29H176.821L177.067 27.3389ZM174.967 19.4902L177.357 27.1807L177.63 29H176.593L174.035 21.0283L173.824 19.4902H174.967ZM184.107 19.4902V29H182.473V19.4902H184.107ZM182.35 16.9678C182.35 16.7041 182.429 16.4814 182.587 16.2998C182.751 16.1182 182.991 16.0273 183.308 16.0273C183.618 16.0273 183.855 16.1182 184.02 16.2998C184.189 16.4814 184.274 16.7041 184.274 16.9678C184.274 17.2197 184.189 17.4365 184.02 17.6182C183.855 17.7939 183.618 17.8818 183.308 17.8818C182.991 17.8818 182.751 17.7939 182.587 17.6182C182.429 17.4365 182.35 17.2197 182.35 16.9678ZM190.699 19.4902V20.7383H185.558V19.4902H190.699ZM187.298 17.1787H188.924V26.6445C188.924 26.9668 188.974 27.21 189.073 27.374C189.173 27.5381 189.302 27.6465 189.46 27.6992C189.618 27.752 189.788 27.7783 189.97 27.7783C190.104 27.7783 190.245 27.7666 190.392 27.7432C190.544 27.7139 190.658 27.6904 190.734 27.6729L190.743 29C190.614 29.041 190.444 29.0791 190.233 29.1143C190.028 29.1553 189.779 29.1758 189.486 29.1758C189.088 29.1758 188.722 29.0967 188.388 28.9385C188.054 28.7803 187.787 28.5166 187.588 28.1475C187.395 27.7725 187.298 27.2686 187.298 26.6357V17.1787ZM194.232 15.5V29H192.606V15.5H194.232ZM193.846 23.8848L193.169 23.8584C193.175 23.208 193.271 22.6074 193.459 22.0566C193.646 21.5 193.91 21.0166 194.25 20.6064C194.59 20.1963 194.994 19.8799 195.463 19.6572C195.938 19.4287 196.462 19.3145 197.036 19.3145C197.505 19.3145 197.927 19.3789 198.302 19.5078C198.677 19.6309 198.996 19.8301 199.26 20.1055C199.529 20.3809 199.734 20.7383 199.875 21.1777C200.016 21.6113 200.086 22.1416 200.086 22.7686V29H198.451V22.751C198.451 22.2529 198.378 21.8545 198.231 21.5557C198.085 21.251 197.871 21.0312 197.59 20.8965C197.309 20.7559 196.963 20.6855 196.553 20.6855C196.148 20.6855 195.779 20.7705 195.445 20.9404C195.117 21.1104 194.833 21.3447 194.593 21.6436C194.358 21.9424 194.174 22.2852 194.039 22.6719C193.91 23.0527 193.846 23.457 193.846 23.8848ZM209.657 28.0156L212.303 19.4902H214.043L210.229 30.4678C210.141 30.7021 210.023 30.9541 209.877 31.2236C209.736 31.499 209.555 31.7598 209.332 32.0059C209.109 32.252 208.84 32.4512 208.523 32.6035C208.213 32.7617 207.841 32.8408 207.407 32.8408C207.278 32.8408 207.114 32.8232 206.915 32.7881C206.716 32.7529 206.575 32.7236 206.493 32.7002L206.484 31.3818C206.531 31.3877 206.604 31.3936 206.704 31.3994C206.81 31.4111 206.883 31.417 206.924 31.417C207.293 31.417 207.606 31.3672 207.864 31.2676C208.122 31.1738 208.339 31.0127 208.515 30.7842C208.696 30.5615 208.852 30.2539 208.98 29.8613L209.657 28.0156ZM207.715 19.4902L210.185 26.873L210.606 28.5869L209.438 29.1846L205.939 19.4902H207.715ZM214.939 24.3506V24.1484C214.939 23.4629 215.039 22.8271 215.238 22.2412C215.438 21.6494 215.725 21.1367 216.1 20.7031C216.475 20.2637 216.929 19.9238 217.462 19.6836C217.995 19.4375 218.593 19.3145 219.255 19.3145C219.923 19.3145 220.523 19.4375 221.057 19.6836C221.596 19.9238 222.053 20.2637 222.428 20.7031C222.809 21.1367 223.099 21.6494 223.298 22.2412C223.497 22.8271 223.597 23.4629 223.597 24.1484V24.3506C223.597 25.0361 223.497 25.6719 223.298 26.2578C223.099 26.8438 222.809 27.3564 222.428 27.7959C222.053 28.2295 221.599 28.5693 221.065 28.8154C220.538 29.0557 219.94 29.1758 219.272 29.1758C218.604 29.1758 218.004 29.0557 217.471 28.8154C216.938 28.5693 216.48 28.2295 216.1 27.7959C215.725 27.3564 215.438 26.8438 215.238 26.2578C215.039 25.6719 214.939 25.0361 214.939 24.3506ZM216.565 24.1484V24.3506C216.565 24.8252 216.621 25.2734 216.732 25.6953C216.844 26.1113 217.011 26.4805 217.233 26.8027C217.462 27.125 217.746 27.3799 218.086 27.5674C218.426 27.749 218.821 27.8398 219.272 27.8398C219.718 27.8398 220.107 27.749 220.441 27.5674C220.781 27.3799 221.062 27.125 221.285 26.8027C221.508 26.4805 221.675 26.1113 221.786 25.6953C221.903 25.2734 221.962 24.8252 221.962 24.3506V24.1484C221.962 23.6797 221.903 23.2373 221.786 22.8213C221.675 22.3994 221.505 22.0273 221.276 21.7051C221.054 21.377 220.772 21.1191 220.433 20.9316C220.099 20.7441 219.706 20.6504 219.255 20.6504C218.81 20.6504 218.417 20.7441 218.077 20.9316C217.743 21.1191 217.462 21.377 217.233 21.7051C217.011 22.0273 216.844 22.3994 216.732 22.8213C216.621 23.2373 216.565 23.6797 216.565 24.1484ZM231.454 26.8027V19.4902H233.089V29H231.533L231.454 26.8027ZM231.762 24.7988L232.438 24.7812C232.438 25.4141 232.371 26 232.236 26.5391C232.107 27.0723 231.896 27.5352 231.604 27.9277C231.311 28.3203 230.927 28.6279 230.452 28.8506C229.978 29.0674 229.4 29.1758 228.721 29.1758C228.258 29.1758 227.833 29.1084 227.446 28.9736C227.065 28.8389 226.737 28.6309 226.462 28.3496C226.187 28.0684 225.973 27.7021 225.82 27.251C225.674 26.7998 225.601 26.2578 225.601 25.625V19.4902H227.227V25.6426C227.227 26.0703 227.273 26.4248 227.367 26.7061C227.467 26.9814 227.599 27.2012 227.763 27.3652C227.933 27.5234 228.12 27.6348 228.325 27.6992C228.536 27.7637 228.753 27.7959 228.976 27.7959C229.667 27.7959 230.215 27.6641 230.619 27.4004C231.023 27.1309 231.313 26.7705 231.489 26.3193C231.671 25.8623 231.762 25.3555 231.762 24.7988ZM237.193 20.9844V29H235.567V19.4902H237.149L237.193 20.9844ZM240.164 19.4375L240.155 20.9492C240.021 20.9199 239.892 20.9023 239.769 20.8965C239.651 20.8848 239.517 20.8789 239.364 20.8789C238.989 20.8789 238.658 20.9375 238.371 21.0547C238.084 21.1719 237.841 21.3359 237.642 21.5469C237.442 21.7578 237.284 22.0098 237.167 22.3027C237.056 22.5898 236.982 22.9062 236.947 23.252L236.49 23.5156C236.49 22.9414 236.546 22.4023 236.657 21.8984C236.774 21.3945 236.953 20.9492 237.193 20.5625C237.434 20.1699 237.738 19.8652 238.107 19.6484C238.482 19.4258 238.928 19.3145 239.443 19.3145C239.561 19.3145 239.695 19.3291 239.848 19.3584C240 19.3818 240.105 19.4082 240.164 19.4375ZM249.938 27.8398C250.324 27.8398 250.682 27.7607 251.01 27.6025C251.338 27.4443 251.607 27.2275 251.818 26.9521C252.029 26.6709 252.149 26.3516 252.179 25.9941H253.726C253.696 26.5566 253.506 27.0811 253.154 27.5674C252.809 28.0479 252.354 28.4375 251.792 28.7363C251.229 29.0293 250.611 29.1758 249.938 29.1758C249.223 29.1758 248.599 29.0498 248.065 28.7979C247.538 28.5459 247.099 28.2002 246.747 27.7607C246.401 27.3213 246.141 26.8174 245.965 26.249C245.795 25.6748 245.71 25.0684 245.71 24.4297V24.0605C245.71 23.4219 245.795 22.8184 245.965 22.25C246.141 21.6758 246.401 21.1689 246.747 20.7295C247.099 20.29 247.538 19.9443 248.065 19.6924C248.599 19.4404 249.223 19.3145 249.938 19.3145C250.682 19.3145 251.332 19.4668 251.889 19.7715C252.445 20.0703 252.882 20.4805 253.198 21.002C253.521 21.5176 253.696 22.1035 253.726 22.7598H252.179C252.149 22.3672 252.038 22.0127 251.845 21.6963C251.657 21.3799 251.399 21.1279 251.071 20.9404C250.749 20.7471 250.371 20.6504 249.938 20.6504C249.439 20.6504 249.021 20.75 248.681 20.9492C248.347 21.1426 248.08 21.4062 247.881 21.7402C247.688 22.0684 247.547 22.4346 247.459 22.8389C247.377 23.2373 247.336 23.6445 247.336 24.0605V24.4297C247.336 24.8457 247.377 25.2559 247.459 25.6602C247.541 26.0645 247.679 26.4307 247.872 26.7588C248.071 27.0869 248.338 27.3506 248.672 27.5498C249.012 27.7432 249.434 27.8398 249.938 27.8398ZM257.18 15.5V29H255.554V15.5H257.18ZM256.793 23.8848L256.116 23.8584C256.122 23.208 256.219 22.6074 256.406 22.0566C256.594 21.5 256.857 21.0166 257.197 20.6064C257.537 20.1963 257.941 19.8799 258.41 19.6572C258.885 19.4287 259.409 19.3145 259.983 19.3145C260.452 19.3145 260.874 19.3789 261.249 19.5078C261.624 19.6309 261.943 19.8301 262.207 20.1055C262.477 20.3809 262.682 20.7383 262.822 21.1777C262.963 21.6113 263.033 22.1416 263.033 22.7686V29H261.398V22.751C261.398 22.2529 261.325 21.8545 261.179 21.5557C261.032 21.251 260.818 21.0312 260.537 20.8965C260.256 20.7559 259.91 20.6855 259.5 20.6855C259.096 20.6855 258.727 20.7705 258.393 20.9404C258.064 21.1104 257.78 21.3447 257.54 21.6436C257.306 21.9424 257.121 22.2852 256.986 22.6719C256.857 23.0527 256.793 23.457 256.793 23.8848ZM267.234 19.4902V29H265.6V19.4902H267.234ZM265.477 16.9678C265.477 16.7041 265.556 16.4814 265.714 16.2998C265.878 16.1182 266.118 16.0273 266.435 16.0273C266.745 16.0273 266.982 16.1182 267.146 16.2998C267.316 16.4814 267.401 16.7041 267.401 16.9678C267.401 17.2197 267.316 17.4365 267.146 17.6182C266.982 17.7939 266.745 17.8818 266.435 17.8818C266.118 17.8818 265.878 17.7939 265.714 17.6182C265.556 17.4365 265.477 17.2197 265.477 16.9678ZM271.611 15.5V29H269.977V15.5H271.611ZM280.216 27.1543V15.5H281.851V29H280.356L280.216 27.1543ZM273.817 24.3506V24.166C273.817 23.4395 273.905 22.7803 274.081 22.1885C274.263 21.5908 274.518 21.0781 274.846 20.6504C275.18 20.2227 275.575 19.8945 276.032 19.666C276.495 19.4316 277.011 19.3145 277.579 19.3145C278.177 19.3145 278.698 19.4199 279.144 19.6309C279.595 19.8359 279.976 20.1377 280.286 20.5361C280.603 20.9287 280.852 21.4033 281.033 21.96C281.215 22.5166 281.341 23.1465 281.411 23.8496V24.6582C281.347 25.3555 281.221 25.9824 281.033 26.5391C280.852 27.0957 280.603 27.5703 280.286 27.9629C279.976 28.3555 279.595 28.6572 279.144 28.8682C278.692 29.0732 278.165 29.1758 277.562 29.1758C277.005 29.1758 276.495 29.0557 276.032 28.8154C275.575 28.5752 275.18 28.2383 274.846 27.8047C274.518 27.3711 274.263 26.8613 274.081 26.2754C273.905 25.6836 273.817 25.042 273.817 24.3506ZM275.452 24.166V24.3506C275.452 24.8252 275.499 25.2705 275.593 25.6865C275.692 26.1025 275.845 26.4688 276.05 26.7852C276.255 27.1016 276.516 27.3506 276.832 27.5322C277.148 27.708 277.526 27.7959 277.966 27.7959C278.505 27.7959 278.947 27.6816 279.293 27.4531C279.645 27.2246 279.926 26.9229 280.137 26.5479C280.348 26.1729 280.512 25.7656 280.629 25.3262V23.208C280.559 22.8857 280.456 22.5752 280.321 22.2764C280.192 21.9717 280.022 21.7021 279.812 21.4678C279.606 21.2275 279.352 21.0371 279.047 20.8965C278.748 20.7559 278.394 20.6855 277.983 20.6855C277.538 20.6855 277.154 20.7793 276.832 20.9668C276.516 21.1484 276.255 21.4004 276.05 21.7227C275.845 22.0391 275.692 22.4082 275.593 22.8301C275.499 23.2461 275.452 23.6914 275.452 24.166ZM289.919 26.4775C289.919 26.2432 289.866 26.0264 289.761 25.8271C289.661 25.6221 289.453 25.4375 289.137 25.2734C288.826 25.1035 288.357 24.957 287.73 24.834C287.203 24.7227 286.726 24.5908 286.298 24.4385C285.876 24.2861 285.516 24.1016 285.217 23.8848C284.924 23.668 284.698 23.4131 284.54 23.1201C284.382 22.8271 284.303 22.4844 284.303 22.0918C284.303 21.7168 284.385 21.3623 284.549 21.0283C284.719 20.6943 284.956 20.3984 285.261 20.1406C285.571 19.8828 285.943 19.6807 286.377 19.5342C286.811 19.3877 287.294 19.3145 287.827 19.3145C288.589 19.3145 289.239 19.4492 289.778 19.7188C290.317 19.9883 290.73 20.3486 291.018 20.7998C291.305 21.2451 291.448 21.7402 291.448 22.2852H289.822C289.822 22.0215 289.743 21.7666 289.585 21.5205C289.433 21.2686 289.207 21.0605 288.908 20.8965C288.615 20.7324 288.255 20.6504 287.827 20.6504C287.376 20.6504 287.01 20.7207 286.729 20.8613C286.453 20.9961 286.251 21.1689 286.122 21.3799C285.999 21.5908 285.938 21.8135 285.938 22.0479C285.938 22.2236 285.967 22.3818 286.025 22.5225C286.09 22.6572 286.201 22.7832 286.359 22.9004C286.518 23.0117 286.74 23.1172 287.027 23.2168C287.314 23.3164 287.681 23.416 288.126 23.5156C288.905 23.6914 289.547 23.9023 290.051 24.1484C290.555 24.3945 290.93 24.6963 291.176 25.0537C291.422 25.4111 291.545 25.8447 291.545 26.3545C291.545 26.7705 291.457 27.1514 291.281 27.4971C291.111 27.8428 290.862 28.1416 290.534 28.3936C290.212 28.6396 289.825 28.833 289.374 28.9736C288.929 29.1084 288.428 29.1758 287.871 29.1758C287.033 29.1758 286.324 29.0264 285.744 28.7275C285.164 28.4287 284.725 28.042 284.426 27.5674C284.127 27.0928 283.978 26.5918 283.978 26.0645H285.612C285.636 26.5098 285.765 26.8643 285.999 27.1279C286.233 27.3857 286.521 27.5703 286.86 27.6816C287.2 27.7871 287.537 27.8398 287.871 27.8398C288.316 27.8398 288.688 27.7812 288.987 27.6641C289.292 27.5469 289.523 27.3857 289.682 27.1807C289.84 26.9756 289.919 26.7412 289.919 26.4775ZM15.0059 36.5V50H13.3711V36.5H15.0059ZM23.2236 48.374V43.4785C23.2236 43.1035 23.1475 42.7783 22.9951 42.5029C22.8486 42.2217 22.626 42.0049 22.3271 41.8525C22.0283 41.7002 21.6592 41.624 21.2197 41.624C20.8096 41.624 20.4492 41.6943 20.1387 41.835C19.834 41.9756 19.5938 42.1602 19.418 42.3887C19.248 42.6172 19.1631 42.8633 19.1631 43.127H17.5371C17.5371 42.7871 17.625 42.4502 17.8008 42.1162C17.9766 41.7822 18.2285 41.4805 18.5566 41.2109C18.8906 40.9355 19.2891 40.7188 19.752 40.5605C20.2207 40.3965 20.7422 40.3145 21.3164 40.3145C22.0078 40.3145 22.6172 40.4316 23.1445 40.666C23.6777 40.9004 24.0938 41.2549 24.3926 41.7295C24.6973 42.1982 24.8496 42.7871 24.8496 43.4961V47.9258C24.8496 48.2422 24.876 48.5791 24.9287 48.9365C24.9873 49.2939 25.0723 49.6016 25.1836 49.8594V50H23.4873C23.4053 49.8125 23.3408 49.5635 23.2939 49.2529C23.2471 48.9365 23.2236 48.6436 23.2236 48.374ZM23.5049 44.2344L23.5225 45.377H21.8789C21.416 45.377 21.0029 45.415 20.6396 45.4912C20.2764 45.5615 19.9717 45.6699 19.7256 45.8164C19.4795 45.9629 19.292 46.1475 19.1631 46.3701C19.0342 46.5869 18.9697 46.8418 18.9697 47.1348C18.9697 47.4336 19.0371 47.7061 19.1719 47.9521C19.3066 48.1982 19.5088 48.3945 19.7783 48.541C20.0537 48.6816 20.3906 48.752 20.7891 48.752C21.2871 48.752 21.7266 48.6465 22.1074 48.4355C22.4883 48.2246 22.79 47.9668 23.0127 47.6621C23.2412 47.3574 23.3643 47.0615 23.3818 46.7744L24.0762 47.5566C24.0352 47.8027 23.9238 48.0752 23.7422 48.374C23.5605 48.6729 23.3174 48.96 23.0127 49.2354C22.7139 49.5049 22.3564 49.7305 21.9404 49.9121C21.5303 50.0879 21.0674 50.1758 20.5518 50.1758C19.9072 50.1758 19.3418 50.0498 18.8555 49.7979C18.375 49.5459 18 49.209 17.7305 48.7871C17.4668 48.3594 17.335 47.8818 17.335 47.3545C17.335 46.8447 17.4346 46.3965 17.6338 46.0098C17.833 45.6172 18.1201 45.292 18.4951 45.0342C18.8701 44.7705 19.3213 44.5713 19.8486 44.4365C20.376 44.3018 20.9648 44.2344 21.6152 44.2344H23.5049ZM29.0332 42.5205V50H27.4072V40.4902H28.9453L29.0332 42.5205ZM28.6465 44.8848L27.9697 44.8584C27.9756 44.208 28.0723 43.6074 28.2598 43.0566C28.4473 42.5 28.7109 42.0166 29.0508 41.6064C29.3906 41.1963 29.7949 40.8799 30.2637 40.6572C30.7383 40.4287 31.2627 40.3145 31.8369 40.3145C32.3057 40.3145 32.7275 40.3789 33.1025 40.5078C33.4775 40.6309 33.7969 40.8301 34.0605 41.1055C34.3301 41.3809 34.5352 41.7383 34.6758 42.1777C34.8164 42.6113 34.8867 43.1416 34.8867 43.7686V50H33.252V43.751C33.252 43.2529 33.1787 42.8545 33.0322 42.5557C32.8857 42.251 32.6719 42.0312 32.3906 41.8965C32.1094 41.7559 31.7637 41.6855 31.3535 41.6855C30.9492 41.6855 30.5801 41.7705 30.2461 41.9404C29.918 42.1104 29.6338 42.3447 29.3936 42.6436C29.1592 42.9424 28.9746 43.2852 28.8398 43.6719C28.7109 44.0527 28.6465 44.457 28.6465 44.8848ZM43.5176 40.4902H44.9941V49.7979C44.9941 50.6357 44.8242 51.3506 44.4844 51.9424C44.1445 52.5342 43.6699 52.9824 43.0605 53.2871C42.457 53.5977 41.7598 53.7529 40.9688 53.7529C40.6406 53.7529 40.2539 53.7002 39.8086 53.5947C39.3691 53.4951 38.9355 53.3223 38.5078 53.0762C38.0859 52.8359 37.7314 52.5107 37.4443 52.1006L38.2969 51.1338C38.6953 51.6143 39.1113 51.9482 39.5449 52.1357C39.9844 52.3232 40.418 52.417 40.8457 52.417C41.3613 52.417 41.8066 52.3203 42.1816 52.127C42.5566 51.9336 42.8467 51.6465 43.0518 51.2656C43.2627 50.8906 43.3682 50.4277 43.3682 49.877V42.582L43.5176 40.4902ZM36.9697 45.3506V45.166C36.9697 44.4395 37.0547 43.7803 37.2246 43.1885C37.4004 42.5908 37.6494 42.0781 37.9717 41.6504C38.2998 41.2227 38.6953 40.8945 39.1582 40.666C39.6211 40.4316 40.1426 40.3145 40.7227 40.3145C41.3203 40.3145 41.8418 40.4199 42.2871 40.6309C42.7383 40.8359 43.1191 41.1377 43.4297 41.5361C43.7461 41.9287 43.9951 42.4033 44.1768 42.96C44.3584 43.5166 44.4844 44.1465 44.5547 44.8496V45.6582C44.4902 46.3555 44.3643 46.9824 44.1768 47.5391C43.9951 48.0957 43.7461 48.5703 43.4297 48.9629C43.1191 49.3555 42.7383 49.6572 42.2871 49.8682C41.8359 50.0732 41.3086 50.1758 40.7051 50.1758C40.1367 50.1758 39.6211 50.0557 39.1582 49.8154C38.7012 49.5752 38.3086 49.2383 37.9805 48.8047C37.6523 48.3711 37.4004 47.8613 37.2246 47.2754C37.0547 46.6836 36.9697 46.042 36.9697 45.3506ZM38.5957 45.166V45.3506C38.5957 45.8252 38.6426 46.2705 38.7363 46.6865C38.8359 47.1025 38.9854 47.4688 39.1846 47.7852C39.3896 48.1016 39.6504 48.3506 39.9668 48.5322C40.2832 48.708 40.6611 48.7959 41.1006 48.7959C41.6396 48.7959 42.085 48.6816 42.4365 48.4531C42.7881 48.2246 43.0664 47.9229 43.2715 47.5479C43.4824 47.1729 43.6465 46.7656 43.7637 46.3262V44.208C43.6992 43.8857 43.5996 43.5752 43.4648 43.2764C43.3359 42.9717 43.166 42.7021 42.9551 42.4678C42.75 42.2275 42.4951 42.0371 42.1904 41.8965C41.8857 41.7559 41.5283 41.6855 41.1182 41.6855C40.6729 41.6855 40.2891 41.7793 39.9668 41.9668C39.6504 42.1484 39.3896 42.4004 39.1846 42.7227C38.9854 43.0391 38.8359 43.4082 38.7363 43.8301C38.6426 44.2461 38.5957 44.6914 38.5957 45.166ZM53.2822 47.8027V40.4902H54.917V50H53.3613L53.2822 47.8027ZM53.5898 45.7988L54.2666 45.7812C54.2666 46.4141 54.1992 47 54.0645 47.5391C53.9355 48.0723 53.7246 48.5352 53.4316 48.9277C53.1387 49.3203 52.7549 49.6279 52.2803 49.8506C51.8057 50.0674 51.2285 50.1758 50.5488 50.1758C50.0859 50.1758 49.6611 50.1084 49.2744 49.9736C48.8936 49.8389 48.5654 49.6309 48.29 49.3496C48.0146 49.0684 47.8008 48.7021 47.6484 48.251C47.502 47.7998 47.4287 47.2578 47.4287 46.625V40.4902H49.0547V46.6426C49.0547 47.0703 49.1016 47.4248 49.1953 47.7061C49.2949 47.9814 49.4268 48.2012 49.5908 48.3652C49.7607 48.5234 49.9482 48.6348 50.1533 48.6992C50.3643 48.7637 50.5811 48.7959 50.8037 48.7959C51.4951 48.7959 52.043 48.6641 52.4473 48.4004C52.8516 48.1309 53.1416 47.7705 53.3174 47.3193C53.499 46.8623 53.5898 46.3555 53.5898 45.7988ZM63.0029 48.374V43.4785C63.0029 43.1035 62.9268 42.7783 62.7744 42.5029C62.6279 42.2217 62.4053 42.0049 62.1064 41.8525C61.8076 41.7002 61.4385 41.624 60.999 41.624C60.5889 41.624 60.2285 41.6943 59.918 41.835C59.6133 41.9756 59.373 42.1602 59.1973 42.3887C59.0273 42.6172 58.9424 42.8633 58.9424 43.127H57.3164C57.3164 42.7871 57.4043 42.4502 57.5801 42.1162C57.7559 41.7822 58.0078 41.4805 58.3359 41.2109C58.6699 40.9355 59.0684 40.7188 59.5312 40.5605C60 40.3965 60.5215 40.3145 61.0957 40.3145C61.7871 40.3145 62.3965 40.4316 62.9238 40.666C63.457 40.9004 63.873 41.2549 64.1719 41.7295C64.4766 42.1982 64.6289 42.7871 64.6289 43.4961V47.9258C64.6289 48.2422 64.6553 48.5791 64.708 48.9365C64.7666 49.2939 64.8516 49.6016 64.9629 49.8594V50H63.2666C63.1846 49.8125 63.1201 49.5635 63.0732 49.2529C63.0264 48.9365 63.0029 48.6436 63.0029 48.374ZM63.2842 44.2344L63.3018 45.377H61.6582C61.1953 45.377 60.7822 45.415 60.4189 45.4912C60.0557 45.5615 59.751 45.6699 59.5049 45.8164C59.2588 45.9629 59.0713 46.1475 58.9424 46.3701C58.8135 46.5869 58.749 46.8418 58.749 47.1348C58.749 47.4336 58.8164 47.7061 58.9512 47.9521C59.0859 48.1982 59.2881 48.3945 59.5576 48.541C59.833 48.6816 60.1699 48.752 60.5684 48.752C61.0664 48.752 61.5059 48.6465 61.8867 48.4355C62.2676 48.2246 62.5693 47.9668 62.792 47.6621C63.0205 47.3574 63.1436 47.0615 63.1611 46.7744L63.8555 47.5566C63.8145 47.8027 63.7031 48.0752 63.5215 48.374C63.3398 48.6729 63.0967 48.96 62.792 49.2354C62.4932 49.5049 62.1357 49.7305 61.7197 49.9121C61.3096 50.0879 60.8467 50.1758 60.3311 50.1758C59.6865 50.1758 59.1211 50.0498 58.6348 49.7979C58.1543 49.5459 57.7793 49.209 57.5098 48.7871C57.2461 48.3594 57.1143 47.8818 57.1143 47.3545C57.1143 46.8447 57.2139 46.3965 57.4131 46.0098C57.6123 45.6172 57.8994 45.292 58.2744 45.0342C58.6494 44.7705 59.1006 44.5713 59.6279 44.4365C60.1553 44.3018 60.7441 44.2344 61.3945 44.2344H63.2842ZM73.3477 40.4902H74.8242V49.7979C74.8242 50.6357 74.6543 51.3506 74.3145 51.9424C73.9746 52.5342 73.5 52.9824 72.8906 53.2871C72.2871 53.5977 71.5898 53.7529 70.7988 53.7529C70.4707 53.7529 70.084 53.7002 69.6387 53.5947C69.1992 53.4951 68.7656 53.3223 68.3379 53.0762C67.916 52.8359 67.5615 52.5107 67.2744 52.1006L68.127 51.1338C68.5254 51.6143 68.9414 51.9482 69.375 52.1357C69.8145 52.3232 70.248 52.417 70.6758 52.417C71.1914 52.417 71.6367 52.3203 72.0117 52.127C72.3867 51.9336 72.6768 51.6465 72.8818 51.2656C73.0928 50.8906 73.1982 50.4277 73.1982 49.877V42.582L73.3477 40.4902ZM66.7998 45.3506V45.166C66.7998 44.4395 66.8848 43.7803 67.0547 43.1885C67.2305 42.5908 67.4795 42.0781 67.8018 41.6504C68.1299 41.2227 68.5254 40.8945 68.9883 40.666C69.4512 40.4316 69.9727 40.3145 70.5527 40.3145C71.1504 40.3145 71.6719 40.4199 72.1172 40.6309C72.5684 40.8359 72.9492 41.1377 73.2598 41.5361C73.5762 41.9287 73.8252 42.4033 74.0068 42.96C74.1885 43.5166 74.3145 44.1465 74.3848 44.8496V45.6582C74.3203 46.3555 74.1943 46.9824 74.0068 47.5391C73.8252 48.0957 73.5762 48.5703 73.2598 48.9629C72.9492 49.3555 72.5684 49.6572 72.1172 49.8682C71.666 50.0732 71.1387 50.1758 70.5352 50.1758C69.9668 50.1758 69.4512 50.0557 68.9883 49.8154C68.5312 49.5752 68.1387 49.2383 67.8105 48.8047C67.4824 48.3711 67.2305 47.8613 67.0547 47.2754C66.8848 46.6836 66.7998 46.042 66.7998 45.3506ZM68.4258 45.166V45.3506C68.4258 45.8252 68.4727 46.2705 68.5664 46.6865C68.666 47.1025 68.8154 47.4688 69.0146 47.7852C69.2197 48.1016 69.4805 48.3506 69.7969 48.5322C70.1133 48.708 70.4912 48.7959 70.9307 48.7959C71.4697 48.7959 71.915 48.6816 72.2666 48.4531C72.6182 48.2246 72.8965 47.9229 73.1016 47.5479C73.3125 47.1729 73.4766 46.7656 73.5938 46.3262V44.208C73.5293 43.8857 73.4297 43.5752 73.2949 43.2764C73.166 42.9717 72.9961 42.7021 72.7852 42.4678C72.5801 42.2275 72.3252 42.0371 72.0205 41.8965C71.7158 41.7559 71.3584 41.6855 70.9482 41.6855C70.5029 41.6855 70.1191 41.7793 69.7969 41.9668C69.4805 42.1484 69.2197 42.4004 69.0146 42.7227C68.8154 43.0391 68.666 43.4082 68.5664 43.8301C68.4727 44.2461 68.4258 44.6914 68.4258 45.166ZM81.2402 50.1758C80.5781 50.1758 79.9775 50.0645 79.4385 49.8418C78.9053 49.6133 78.4453 49.2939 78.0586 48.8838C77.6777 48.4736 77.3848 47.9873 77.1797 47.4248C76.9746 46.8623 76.8721 46.2471 76.8721 45.5791V45.21C76.8721 44.4365 76.9863 43.748 77.2148 43.1445C77.4434 42.5352 77.7539 42.0195 78.1465 41.5977C78.5391 41.1758 78.9844 40.8564 79.4824 40.6396C79.9805 40.4229 80.4961 40.3145 81.0293 40.3145C81.709 40.3145 82.2949 40.4316 82.7871 40.666C83.2852 40.9004 83.6924 41.2285 84.0088 41.6504C84.3252 42.0664 84.5596 42.5586 84.7119 43.127C84.8643 43.6895 84.9404 44.3047 84.9404 44.9727V45.7021H77.8389V44.375H83.3145V44.252C83.291 43.8301 83.2031 43.4199 83.0508 43.0215C82.9043 42.623 82.6699 42.2949 82.3477 42.0371C82.0254 41.7793 81.5859 41.6504 81.0293 41.6504C80.6602 41.6504 80.3203 41.7295 80.0098 41.8877C79.6992 42.04 79.4326 42.2686 79.21 42.5732C78.9873 42.8779 78.8145 43.25 78.6914 43.6895C78.5684 44.1289 78.5068 44.6357 78.5068 45.21V45.5791C78.5068 46.0303 78.5684 46.4551 78.6914 46.8535C78.8203 47.2461 79.0049 47.5918 79.2451 47.8906C79.4912 48.1895 79.7871 48.4238 80.1328 48.5938C80.4844 48.7637 80.8828 48.8486 81.3281 48.8486C81.9023 48.8486 82.3887 48.7314 82.7871 48.4971C83.1855 48.2627 83.5342 47.9492 83.833 47.5566L84.8174 48.3389C84.6123 48.6494 84.3516 48.9453 84.0352 49.2266C83.7188 49.5078 83.3291 49.7363 82.8662 49.9121C82.4092 50.0879 81.8672 50.1758 81.2402 50.1758ZM97.2979 48.1543V36.5H98.9326V50H97.4385L97.2979 48.1543ZM90.8994 45.3506V45.166C90.8994 44.4395 90.9873 43.7803 91.1631 43.1885C91.3447 42.5908 91.5996 42.0781 91.9277 41.6504C92.2617 41.2227 92.6572 40.8945 93.1143 40.666C93.5771 40.4316 94.0928 40.3145 94.6611 40.3145C95.2588 40.3145 95.7803 40.4199 96.2256 40.6309C96.6768 40.8359 97.0576 41.1377 97.3682 41.5361C97.6846 41.9287 97.9336 42.4033 98.1152 42.96C98.2969 43.5166 98.4229 44.1465 98.4932 44.8496V45.6582C98.4287 46.3555 98.3027 46.9824 98.1152 47.5391C97.9336 48.0957 97.6846 48.5703 97.3682 48.9629C97.0576 49.3555 96.6768 49.6572 96.2256 49.8682C95.7744 50.0732 95.2471 50.1758 94.6436 50.1758C94.0869 50.1758 93.5771 50.0557 93.1143 49.8154C92.6572 49.5752 92.2617 49.2383 91.9277 48.8047C91.5996 48.3711 91.3447 47.8613 91.1631 47.2754C90.9873 46.6836 90.8994 46.042 90.8994 45.3506ZM92.5342 45.166V45.3506C92.5342 45.8252 92.5811 46.2705 92.6748 46.6865C92.7744 47.1025 92.9268 47.4688 93.1318 47.7852C93.3369 48.1016 93.5977 48.3506 93.9141 48.5322C94.2305 48.708 94.6084 48.7959 95.0479 48.7959C95.5869 48.7959 96.0293 48.6816 96.375 48.4531C96.7266 48.2246 97.0078 47.9229 97.2188 47.5479C97.4297 47.1729 97.5938 46.7656 97.7109 46.3262V44.208C97.6406 43.8857 97.5381 43.5752 97.4033 43.2764C97.2744 42.9717 97.1045 42.7021 96.8936 42.4678C96.6885 42.2275 96.4336 42.0371 96.1289 41.8965C95.8301 41.7559 95.4756 41.6855 95.0654 41.6855C94.6201 41.6855 94.2363 41.7793 93.9141 41.9668C93.5977 42.1484 93.3369 42.4004 93.1318 42.7227C92.9268 43.0391 92.7744 43.4082 92.6748 43.8301C92.5811 44.2461 92.5342 44.6914 92.5342 45.166ZM105.41 50.1758C104.748 50.1758 104.147 50.0645 103.608 49.8418C103.075 49.6133 102.615 49.2939 102.229 48.8838C101.848 48.4736 101.555 47.9873 101.35 47.4248C101.145 46.8623 101.042 46.2471 101.042 45.5791V45.21C101.042 44.4365 101.156 43.748 101.385 43.1445C101.613 42.5352 101.924 42.0195 102.316 41.5977C102.709 41.1758 103.154 40.8564 103.652 40.6396C104.15 40.4229 104.666 40.3145 105.199 40.3145C105.879 40.3145 106.465 40.4316 106.957 40.666C107.455 40.9004 107.862 41.2285 108.179 41.6504C108.495 42.0664 108.729 42.5586 108.882 43.127C109.034 43.6895 109.11 44.3047 109.11 44.9727V45.7021H102.009V44.375H107.484V44.252C107.461 43.8301 107.373 43.4199 107.221 43.0215C107.074 42.623 106.84 42.2949 106.518 42.0371C106.195 41.7793 105.756 41.6504 105.199 41.6504C104.83 41.6504 104.49 41.7295 104.18 41.8877C103.869 42.04 103.603 42.2686 103.38 42.5732C103.157 42.8779 102.984 43.25 102.861 43.6895C102.738 44.1289 102.677 44.6357 102.677 45.21V45.5791C102.677 46.0303 102.738 46.4551 102.861 46.8535C102.99 47.2461 103.175 47.5918 103.415 47.8906C103.661 48.1895 103.957 48.4238 104.303 48.5938C104.654 48.7637 105.053 48.8486 105.498 48.8486C106.072 48.8486 106.559 48.7314 106.957 48.4971C107.355 48.2627 107.704 47.9492 108.003 47.5566L108.987 48.3389C108.782 48.6494 108.521 48.9453 108.205 49.2266C107.889 49.5078 107.499 49.7363 107.036 49.9121C106.579 50.0879 106.037 50.1758 105.41 50.1758ZM113.777 48.5322L116.379 40.4902H118.04L114.621 50H113.531L113.777 48.5322ZM111.606 40.4902L114.287 48.5762L114.472 50H113.382L109.937 40.4902H111.606ZM123.428 50.1758C122.766 50.1758 122.165 50.0645 121.626 49.8418C121.093 49.6133 120.633 49.2939 120.246 48.8838C119.865 48.4736 119.572 47.9873 119.367 47.4248C119.162 46.8623 119.06 46.2471 119.06 45.5791V45.21C119.06 44.4365 119.174 43.748 119.402 43.1445C119.631 42.5352 119.941 42.0195 120.334 41.5977C120.727 41.1758 121.172 40.8564 121.67 40.6396C122.168 40.4229 122.684 40.3145 123.217 40.3145C123.896 40.3145 124.482 40.4316 124.975 40.666C125.473 40.9004 125.88 41.2285 126.196 41.6504C126.513 42.0664 126.747 42.5586 126.899 43.127C127.052 43.6895 127.128 44.3047 127.128 44.9727V45.7021H120.026V44.375H125.502V44.252C125.479 43.8301 125.391 43.4199 125.238 43.0215C125.092 42.623 124.857 42.2949 124.535 42.0371C124.213 41.7793 123.773 41.6504 123.217 41.6504C122.848 41.6504 122.508 41.7295 122.197 41.8877C121.887 42.04 121.62 42.2686 121.397 42.5732C121.175 42.8779 121.002 43.25 120.879 43.6895C120.756 44.1289 120.694 44.6357 120.694 45.21V45.5791C120.694 46.0303 120.756 46.4551 120.879 46.8535C121.008 47.2461 121.192 47.5918 121.433 47.8906C121.679 48.1895 121.975 48.4238 122.32 48.5938C122.672 48.7637 123.07 48.8486 123.516 48.8486C124.09 48.8486 124.576 48.7314 124.975 48.4971C125.373 48.2627 125.722 47.9492 126.021 47.5566L127.005 48.3389C126.8 48.6494 126.539 48.9453 126.223 49.2266C125.906 49.5078 125.517 49.7363 125.054 49.9121C124.597 50.0879 124.055 50.1758 123.428 50.1758ZM130.793 36.5V50H129.158V36.5H130.793ZM132.973 45.3506V45.1484C132.973 44.4629 133.072 43.8271 133.271 43.2412C133.471 42.6494 133.758 42.1367 134.133 41.7031C134.508 41.2637 134.962 40.9238 135.495 40.6836C136.028 40.4375 136.626 40.3145 137.288 40.3145C137.956 40.3145 138.557 40.4375 139.09 40.6836C139.629 40.9238 140.086 41.2637 140.461 41.7031C140.842 42.1367 141.132 42.6494 141.331 43.2412C141.53 43.8271 141.63 44.4629 141.63 45.1484V45.3506C141.63 46.0361 141.53 46.6719 141.331 47.2578C141.132 47.8438 140.842 48.3564 140.461 48.7959C140.086 49.2295 139.632 49.5693 139.099 49.8154C138.571 50.0557 137.974 50.1758 137.306 50.1758C136.638 50.1758 136.037 50.0557 135.504 49.8154C134.971 49.5693 134.514 49.2295 134.133 48.7959C133.758 48.3564 133.471 47.8438 133.271 47.2578C133.072 46.6719 132.973 46.0361 132.973 45.3506ZM134.599 45.1484V45.3506C134.599 45.8252 134.654 46.2734 134.766 46.6953C134.877 47.1113 135.044 47.4805 135.267 47.8027C135.495 48.125 135.779 48.3799 136.119 48.5674C136.459 48.749 136.854 48.8398 137.306 48.8398C137.751 48.8398 138.141 48.749 138.475 48.5674C138.814 48.3799 139.096 48.125 139.318 47.8027C139.541 47.4805 139.708 47.1113 139.819 46.6953C139.937 46.2734 139.995 45.8252 139.995 45.3506V45.1484C139.995 44.6797 139.937 44.2373 139.819 43.8213C139.708 43.3994 139.538 43.0273 139.31 42.7051C139.087 42.377 138.806 42.1191 138.466 41.9316C138.132 41.7441 137.739 41.6504 137.288 41.6504C136.843 41.6504 136.45 41.7441 136.11 41.9316C135.776 42.1191 135.495 42.377 135.267 42.7051C135.044 43.0273 134.877 43.3994 134.766 43.8213C134.654 44.2373 134.599 44.6797 134.599 45.1484ZM145.295 42.3184V53.6562H143.66V40.4902H145.154L145.295 42.3184ZM151.702 45.166V45.3506C151.702 46.042 151.62 46.6836 151.456 47.2754C151.292 47.8613 151.052 48.3711 150.735 48.8047C150.425 49.2383 150.041 49.5752 149.584 49.8154C149.127 50.0557 148.603 50.1758 148.011 50.1758C147.407 50.1758 146.874 50.0762 146.411 49.877C145.948 49.6777 145.556 49.3877 145.233 49.0068C144.911 48.626 144.653 48.1689 144.46 47.6357C144.272 47.1025 144.144 46.502 144.073 45.834V44.8496C144.144 44.1465 144.275 43.5166 144.469 42.96C144.662 42.4033 144.917 41.9287 145.233 41.5361C145.556 41.1377 145.945 40.8359 146.402 40.6309C146.859 40.4199 147.387 40.3145 147.984 40.3145C148.582 40.3145 149.112 40.4316 149.575 40.666C150.038 40.8945 150.428 41.2227 150.744 41.6504C151.061 42.0781 151.298 42.5908 151.456 43.1885C151.62 43.7803 151.702 44.4395 151.702 45.166ZM150.067 45.3506V45.166C150.067 44.6914 150.018 44.2461 149.918 43.8301C149.818 43.4082 149.663 43.0391 149.452 42.7227C149.247 42.4004 148.983 42.1484 148.661 41.9668C148.339 41.7793 147.955 41.6855 147.51 41.6855C147.1 41.6855 146.742 41.7559 146.438 41.8965C146.139 42.0371 145.884 42.2275 145.673 42.4678C145.462 42.7021 145.289 42.9717 145.154 43.2764C145.025 43.5752 144.929 43.8857 144.864 44.208V46.4844C144.981 46.8945 145.146 47.2812 145.356 47.6445C145.567 48.002 145.849 48.292 146.2 48.5146C146.552 48.7314 146.994 48.8398 147.527 48.8398C147.967 48.8398 148.345 48.749 148.661 48.5674C148.983 48.3799 149.247 48.125 149.452 47.8027C149.663 47.4805 149.818 47.1113 149.918 46.6953C150.018 46.2734 150.067 45.8252 150.067 45.3506ZM155.394 42.3799V50H153.759V40.4902H155.306L155.394 42.3799ZM155.06 44.8848L154.304 44.8584C154.31 44.208 154.395 43.6074 154.559 43.0566C154.723 42.5 154.966 42.0166 155.288 41.6064C155.61 41.1963 156.012 40.8799 156.492 40.6572C156.973 40.4287 157.529 40.3145 158.162 40.3145C158.607 40.3145 159.018 40.3789 159.393 40.5078C159.768 40.6309 160.093 40.8271 160.368 41.0967C160.644 41.3662 160.857 41.7119 161.01 42.1338C161.162 42.5557 161.238 43.0654 161.238 43.6631V50H159.612V43.7422C159.612 43.2441 159.527 42.8457 159.357 42.5469C159.193 42.248 158.959 42.0312 158.654 41.8965C158.35 41.7559 157.992 41.6855 157.582 41.6855C157.102 41.6855 156.7 41.7705 156.378 41.9404C156.056 42.1104 155.798 42.3447 155.604 42.6436C155.411 42.9424 155.271 43.2852 155.183 43.6719C155.101 44.0527 155.06 44.457 155.06 44.8848ZM161.221 43.9883L160.131 44.3223C160.137 43.8008 160.222 43.2998 160.386 42.8193C160.556 42.3389 160.799 41.9111 161.115 41.5361C161.438 41.1611 161.833 40.8652 162.302 40.6484C162.771 40.4258 163.307 40.3145 163.91 40.3145C164.42 40.3145 164.871 40.3818 165.264 40.5166C165.662 40.6514 165.996 40.8594 166.266 41.1406C166.541 41.416 166.749 41.7705 166.89 42.2041C167.03 42.6377 167.101 43.1533 167.101 43.751V50H165.466V43.7334C165.466 43.2002 165.381 42.7871 165.211 42.4941C165.047 42.1953 164.812 41.9873 164.508 41.8701C164.209 41.7471 163.852 41.6855 163.436 41.6855C163.078 41.6855 162.762 41.7471 162.486 41.8701C162.211 41.9932 161.979 42.1631 161.792 42.3799C161.604 42.5908 161.461 42.834 161.361 43.1094C161.268 43.3848 161.221 43.6777 161.221 43.9883ZM173.508 50.1758C172.846 50.1758 172.245 50.0645 171.706 49.8418C171.173 49.6133 170.713 49.2939 170.326 48.8838C169.945 48.4736 169.652 47.9873 169.447 47.4248C169.242 46.8623 169.14 46.2471 169.14 45.5791V45.21C169.14 44.4365 169.254 43.748 169.482 43.1445C169.711 42.5352 170.021 42.0195 170.414 41.5977C170.807 41.1758 171.252 40.8564 171.75 40.6396C172.248 40.4229 172.764 40.3145 173.297 40.3145C173.977 40.3145 174.562 40.4316 175.055 40.666C175.553 40.9004 175.96 41.2285 176.276 41.6504C176.593 42.0664 176.827 42.5586 176.979 43.127C177.132 43.6895 177.208 44.3047 177.208 44.9727V45.7021H170.106V44.375H175.582V44.252C175.559 43.8301 175.471 43.4199 175.318 43.0215C175.172 42.623 174.938 42.2949 174.615 42.0371C174.293 41.7793 173.854 41.6504 173.297 41.6504C172.928 41.6504 172.588 41.7295 172.277 41.8877C171.967 42.04 171.7 42.2686 171.478 42.5732C171.255 42.8779 171.082 43.25 170.959 43.6895C170.836 44.1289 170.774 44.6357 170.774 45.21V45.5791C170.774 46.0303 170.836 46.4551 170.959 46.8535C171.088 47.2461 171.272 47.5918 171.513 47.8906C171.759 48.1895 172.055 48.4238 172.4 48.5938C172.752 48.7637 173.15 48.8486 173.596 48.8486C174.17 48.8486 174.656 48.7314 175.055 48.4971C175.453 48.2627 175.802 47.9492 176.101 47.5566L177.085 48.3389C176.88 48.6494 176.619 48.9453 176.303 49.2266C175.986 49.5078 175.597 49.7363 175.134 49.9121C174.677 50.0879 174.135 50.1758 173.508 50.1758ZM180.732 42.5205V50H179.106V40.4902H180.645L180.732 42.5205ZM180.346 44.8848L179.669 44.8584C179.675 44.208 179.771 43.6074 179.959 43.0566C180.146 42.5 180.41 42.0166 180.75 41.6064C181.09 41.1963 181.494 40.8799 181.963 40.6572C182.438 40.4287 182.962 40.3145 183.536 40.3145C184.005 40.3145 184.427 40.3789 184.802 40.5078C185.177 40.6309 185.496 40.8301 185.76 41.1055C186.029 41.3809 186.234 41.7383 186.375 42.1777C186.516 42.6113 186.586 43.1416 186.586 43.7686V50H184.951V43.751C184.951 43.2529 184.878 42.8545 184.731 42.5557C184.585 42.251 184.371 42.0312 184.09 41.8965C183.809 41.7559 183.463 41.6855 183.053 41.6855C182.648 41.6855 182.279 41.7705 181.945 41.9404C181.617 42.1104 181.333 42.3447 181.093 42.6436C180.858 42.9424 180.674 43.2852 180.539 43.6719C180.41 44.0527 180.346 44.457 180.346 44.8848ZM193.037 40.4902V41.7383H187.896V40.4902H193.037ZM189.636 38.1787H191.262V47.6445C191.262 47.9668 191.312 48.21 191.411 48.374C191.511 48.5381 191.64 48.6465 191.798 48.6992C191.956 48.752 192.126 48.7783 192.308 48.7783C192.442 48.7783 192.583 48.7666 192.729 48.7432C192.882 48.7139 192.996 48.6904 193.072 48.6729L193.081 50C192.952 50.041 192.782 50.0791 192.571 50.1143C192.366 50.1553 192.117 50.1758 191.824 50.1758C191.426 50.1758 191.06 50.0967 190.726 49.9385C190.392 49.7803 190.125 49.5166 189.926 49.1475C189.732 48.7725 189.636 48.2686 189.636 47.6357V38.1787ZM203.391 40.4902V41.7383H198.249V40.4902H203.391ZM199.989 38.1787H201.615V47.6445C201.615 47.9668 201.665 48.21 201.765 48.374C201.864 48.5381 201.993 48.6465 202.151 48.6992C202.31 48.752 202.479 48.7783 202.661 48.7783C202.796 48.7783 202.937 48.7666 203.083 48.7432C203.235 48.7139 203.35 48.6904 203.426 48.6729L203.435 50C203.306 50.041 203.136 50.0791 202.925 50.1143C202.72 50.1553 202.471 50.1758 202.178 50.1758C201.779 50.1758 201.413 50.0967 201.079 49.9385C200.745 49.7803 200.479 49.5166 200.279 49.1475C200.086 48.7725 199.989 48.2686 199.989 47.6357V38.1787ZM204.691 45.3506V45.1484C204.691 44.4629 204.791 43.8271 204.99 43.2412C205.189 42.6494 205.477 42.1367 205.852 41.7031C206.227 41.2637 206.681 40.9238 207.214 40.6836C207.747 40.4375 208.345 40.3145 209.007 40.3145C209.675 40.3145 210.275 40.4375 210.809 40.6836C211.348 40.9238 211.805 41.2637 212.18 41.7031C212.561 42.1367 212.851 42.6494 213.05 43.2412C213.249 43.8271 213.349 44.4629 213.349 45.1484V45.3506C213.349 46.0361 213.249 46.6719 213.05 47.2578C212.851 47.8438 212.561 48.3564 212.18 48.7959C211.805 49.2295 211.351 49.5693 210.817 49.8154C210.29 50.0557 209.692 50.1758 209.024 50.1758C208.356 50.1758 207.756 50.0557 207.223 49.8154C206.689 49.5693 206.232 49.2295 205.852 48.7959C205.477 48.3564 205.189 47.8438 204.99 47.2578C204.791 46.6719 204.691 46.0361 204.691 45.3506ZM206.317 45.1484V45.3506C206.317 45.8252 206.373 46.2734 206.484 46.6953C206.596 47.1113 206.763 47.4805 206.985 47.8027C207.214 48.125 207.498 48.3799 207.838 48.5674C208.178 48.749 208.573 48.8398 209.024 48.8398C209.47 48.8398 209.859 48.749 210.193 48.5674C210.533 48.3799 210.814 48.125 211.037 47.8027C211.26 47.4805 211.427 47.1113 211.538 46.6953C211.655 46.2734 211.714 45.8252 211.714 45.3506V45.1484C211.714 44.6797 211.655 44.2373 211.538 43.8213C211.427 43.3994 211.257 43.0273 211.028 42.7051C210.806 42.377 210.524 42.1191 210.185 41.9316C209.851 41.7441 209.458 41.6504 209.007 41.6504C208.562 41.6504 208.169 41.7441 207.829 41.9316C207.495 42.1191 207.214 42.377 206.985 42.7051C206.763 43.0273 206.596 43.3994 206.484 43.8213C206.373 44.2373 206.317 44.6797 206.317 45.1484ZM221.382 48.1543V36.5H223.017V50H221.522L221.382 48.1543ZM214.983 45.3506V45.166C214.983 44.4395 215.071 43.7803 215.247 43.1885C215.429 42.5908 215.684 42.0781 216.012 41.6504C216.346 41.2227 216.741 40.8945 217.198 40.666C217.661 40.4316 218.177 40.3145 218.745 40.3145C219.343 40.3145 219.864 40.4199 220.31 40.6309C220.761 40.8359 221.142 41.1377 221.452 41.5361C221.769 41.9287 222.018 42.4033 222.199 42.96C222.381 43.5166 222.507 44.1465 222.577 44.8496V45.6582C222.513 46.3555 222.387 46.9824 222.199 47.5391C222.018 48.0957 221.769 48.5703 221.452 48.9629C221.142 49.3555 220.761 49.6572 220.31 49.8682C219.858 50.0732 219.331 50.1758 218.728 50.1758C218.171 50.1758 217.661 50.0557 217.198 49.8154C216.741 49.5752 216.346 49.2383 216.012 48.8047C215.684 48.3711 215.429 47.8613 215.247 47.2754C215.071 46.6836 214.983 46.042 214.983 45.3506ZM216.618 45.166V45.3506C216.618 45.8252 216.665 46.2705 216.759 46.6865C216.858 47.1025 217.011 47.4688 217.216 47.7852C217.421 48.1016 217.682 48.3506 217.998 48.5322C218.314 48.708 218.692 48.7959 219.132 48.7959C219.671 48.7959 220.113 48.6816 220.459 48.4531C220.811 48.2246 221.092 47.9229 221.303 47.5479C221.514 47.1729 221.678 46.7656 221.795 46.3262V44.208C221.725 43.8857 221.622 43.5752 221.487 43.2764C221.358 42.9717 221.188 42.7021 220.978 42.4678C220.772 42.2275 220.518 42.0371 220.213 41.8965C219.914 41.7559 219.56 41.6855 219.149 41.6855C218.704 41.6855 218.32 41.7793 217.998 41.9668C217.682 42.1484 217.421 42.4004 217.216 42.7227C217.011 43.0391 216.858 43.4082 216.759 43.8301C216.665 44.2461 216.618 44.6914 216.618 45.166ZM231.155 48.374V43.4785C231.155 43.1035 231.079 42.7783 230.927 42.5029C230.78 42.2217 230.558 42.0049 230.259 41.8525C229.96 41.7002 229.591 41.624 229.151 41.624C228.741 41.624 228.381 41.6943 228.07 41.835C227.766 41.9756 227.525 42.1602 227.35 42.3887C227.18 42.6172 227.095 42.8633 227.095 43.127H225.469C225.469 42.7871 225.557 42.4502 225.732 42.1162C225.908 41.7822 226.16 41.4805 226.488 41.2109C226.822 40.9355 227.221 40.7188 227.684 40.5605C228.152 40.3965 228.674 40.3145 229.248 40.3145C229.939 40.3145 230.549 40.4316 231.076 40.666C231.609 40.9004 232.025 41.2549 232.324 41.7295C232.629 42.1982 232.781 42.7871 232.781 43.4961V47.9258C232.781 48.2422 232.808 48.5791 232.86 48.9365C232.919 49.2939 233.004 49.6016 233.115 49.8594V50H231.419C231.337 49.8125 231.272 49.5635 231.226 49.2529C231.179 48.9365 231.155 48.6436 231.155 48.374ZM231.437 44.2344L231.454 45.377H229.811C229.348 45.377 228.935 45.415 228.571 45.4912C228.208 45.5615 227.903 45.6699 227.657 45.8164C227.411 45.9629 227.224 46.1475 227.095 46.3701C226.966 46.5869 226.901 46.8418 226.901 47.1348C226.901 47.4336 226.969 47.7061 227.104 47.9521C227.238 48.1982 227.44 48.3945 227.71 48.541C227.985 48.6816 228.322 48.752 228.721 48.752C229.219 48.752 229.658 48.6465 230.039 48.4355C230.42 48.2246 230.722 47.9668 230.944 47.6621C231.173 47.3574 231.296 47.0615 231.313 46.7744L232.008 47.5566C231.967 47.8027 231.855 48.0752 231.674 48.374C231.492 48.6729 231.249 48.96 230.944 49.2354C230.646 49.5049 230.288 49.7305 229.872 49.9121C229.462 50.0879 228.999 50.1758 228.483 50.1758C227.839 50.1758 227.273 50.0498 226.787 49.7979C226.307 49.5459 225.932 49.209 225.662 48.7871C225.398 48.3594 225.267 47.8818 225.267 47.3545C225.267 46.8447 225.366 46.3965 225.565 46.0098C225.765 45.6172 226.052 45.292 226.427 45.0342C226.802 44.7705 227.253 44.5713 227.78 44.4365C228.308 44.3018 228.896 44.2344 229.547 44.2344H231.437ZM237.87 49.0156L240.516 40.4902H242.256L238.441 51.4678C238.354 51.7021 238.236 51.9541 238.09 52.2236C237.949 52.499 237.768 52.7598 237.545 53.0059C237.322 53.252 237.053 53.4512 236.736 53.6035C236.426 53.7617 236.054 53.8408 235.62 53.8408C235.491 53.8408 235.327 53.8232 235.128 53.7881C234.929 53.7529 234.788 53.7236 234.706 53.7002L234.697 52.3818C234.744 52.3877 234.817 52.3936 234.917 52.3994C235.022 52.4111 235.096 52.417 235.137 52.417C235.506 52.417 235.819 52.3672 236.077 52.2676C236.335 52.1738 236.552 52.0127 236.728 51.7842C236.909 51.5615 237.064 51.2539 237.193 50.8613L237.87 49.0156ZM235.928 40.4902L238.397 47.873L238.819 49.5869L237.65 50.1846L234.152 40.4902H235.928ZM247.257 46.3965H245.622C245.628 45.834 245.678 45.374 245.771 45.0166C245.871 44.6533 246.032 44.3223 246.255 44.0234C246.478 43.7246 246.773 43.3848 247.143 43.0039C247.412 42.7285 247.658 42.4707 247.881 42.2305C248.109 41.9844 248.294 41.7207 248.435 41.4395C248.575 41.1523 248.646 40.8096 248.646 40.4111C248.646 40.0068 248.572 39.6582 248.426 39.3652C248.285 39.0723 248.074 38.8467 247.793 38.6885C247.518 38.5303 247.175 38.4512 246.765 38.4512C246.425 38.4512 246.103 38.5127 245.798 38.6357C245.493 38.7588 245.247 38.9492 245.06 39.207C244.872 39.459 244.775 39.79 244.77 40.2002H243.144C243.155 39.5381 243.319 38.9697 243.636 38.4951C243.958 38.0205 244.392 37.6572 244.937 37.4053C245.481 37.1533 246.091 37.0273 246.765 37.0273C247.509 37.0273 248.142 37.1621 248.663 37.4316C249.19 37.7012 249.592 38.0879 249.867 38.5918C250.143 39.0898 250.28 39.6816 250.28 40.3672C250.28 40.8945 250.172 41.3809 249.955 41.8262C249.744 42.2656 249.472 42.6787 249.138 43.0654C248.804 43.4521 248.449 43.8213 248.074 44.1729C247.752 44.4717 247.535 44.8086 247.424 45.1836C247.312 45.5586 247.257 45.9629 247.257 46.3965ZM245.552 49.1826C245.552 48.9189 245.634 48.6963 245.798 48.5146C245.962 48.333 246.199 48.2422 246.51 48.2422C246.826 48.2422 247.066 48.333 247.23 48.5146C247.395 48.6963 247.477 48.9189 247.477 49.1826C247.477 49.4346 247.395 49.6514 247.23 49.833C247.066 50.0146 246.826 50.1055 246.51 50.1055C246.199 50.1055 245.962 50.0146 245.798 49.833C245.634 49.6514 245.552 49.4346 245.552 49.1826Z" fill="#403D45"/>
<defs>
<linearGradient id="paint0_linear_80_53" x1="135.93" y1="-1.4054e-06" x2="135.93" y2="66.95" gradientUnits="userSpaceOnUse">
<stop stop-color="white"/>
<stop offset="1" stop-color="white" stop-opacity="0"/>
</linearGradient>
</defs>
</svg>
