<svg width="439" height="282" viewBox="0 0 439 282" fill="none" xmlns="http://www.w3.org/2000/svg">
<path d="M9.12 149.88C8.576 149.88 8.304 149.56 8.304 148.92C8.304 147.896 8.864 146.104 9.984 143.544C11.104 140.952 12.784 137.624 15.024 133.56L24.144 117.144H23.232C15.776 117.144 10.912 118.056 8.64 119.88C7.712 120.616 7.072 121.672 6.72 123.048C6.688 123.528 6.48 123.768 6.096 123.768C5.456 123.768 5.136 123.48 5.136 122.904C5.136 121.304 6.016 119.864 7.776 118.584C10.432 116.6 15.408 115.608 22.704 115.608C24.816 115.608 26.944 115.656 29.088 115.752L34.08 116.088C35.104 116.152 36.032 116.216 36.864 116.28C37.696 116.312 38.432 116.328 39.072 116.328C39.584 116.328 39.84 116.584 39.84 117.096C39.84 117.608 39.584 117.864 39.072 117.864C37.952 117.864 36.288 117.768 34.08 117.576C32.48 117.416 31.232 117.32 30.336 117.288C29.44 117.256 28.624 117.24 27.888 117.24C27.216 117.24 26.72 117.24 26.4 117.24C26.08 117.208 25.856 117.192 25.728 117.192C25.344 118.184 24.368 120.088 22.8 122.904L17.952 131.544C15.232 136.408 13.2 140.28 11.856 143.16C10.544 146.04 9.888 147.896 9.888 148.728V148.968C9.888 149.576 9.632 149.88 9.12 149.88ZM21.7781 148.2C21.2661 148.2 21.0101 147.992 21.0101 147.576C21.0101 147.384 21.0581 147.192 21.1541 147C21.2821 146.808 21.3781 146.648 21.4421 146.52L25.8101 137.688C27.6661 133.912 28.5941 131.816 28.5941 131.4C28.5941 130.952 28.8181 130.728 29.2661 130.728C29.8741 130.728 30.1781 131.032 30.1781 131.64C30.1781 131.96 30.0341 132.472 29.7461 133.176C29.4581 133.88 29.0901 134.696 28.6421 135.624C27.8741 137.288 27.2341 138.568 26.7221 139.464C27.6821 138.344 28.6581 137.288 29.6501 136.296C30.6421 135.304 31.6501 134.36 32.6741 133.464C35.7141 130.808 38.0501 129.48 39.6821 129.48C40.8021 129.48 41.3621 130.008 41.3621 131.064C41.3621 132.088 41.0261 132.6 40.3541 132.6C40.0341 132.6 39.7941 132.328 39.6341 131.784C39.5381 131.4 39.3141 131.208 38.9621 131.208C38.4181 131.208 37.3621 131.8 35.7941 132.984C34.0661 134.264 32.3221 135.784 30.5621 137.544C28.8341 139.304 26.9941 141.544 25.0421 144.264L22.6421 147.624C22.5141 147.784 22.3861 147.912 22.2581 148.008C22.1621 148.136 22.0021 148.2 21.7781 148.2ZM38.208 162.888C36.256 162.888 35.28 161.736 35.28 159.432C35.28 157.48 35.696 155.592 36.528 153.768C36.656 153.448 36.864 153.288 37.152 153.288C37.728 153.288 38.016 153.544 38.016 154.056C38.016 154.184 37.968 154.344 37.872 154.536C37.808 154.76 37.728 155 37.632 155.256C37.408 155.864 37.232 156.504 37.104 157.176C36.976 157.848 36.912 158.552 36.912 159.288C36.912 160.12 37.024 160.68 37.248 160.968C37.472 161.256 37.76 161.4 38.112 161.4C38.944 161.4 39.92 161.016 41.04 160.248C42.192 159.48 43.376 158.264 44.592 156.6C45.456 155.416 46.352 154.008 47.28 152.376C48.208 150.744 49.2 148.872 50.256 146.76C51.664 143.976 52.96 141.144 54.144 138.264C53.344 139.288 52.512 140.28 51.648 141.24C50.784 142.2 49.856 143.096 48.864 143.928C46.208 146.2 44 147.336 42.24 147.336C40.128 147.336 39.072 146.12 39.072 143.688C39.072 142.824 39.232 141.784 39.552 140.568C39.904 139.352 40.384 137.96 40.992 136.392C41.088 136.136 41.136 135.928 41.136 135.768C41.136 135.576 41.184 135.384 41.28 135.192C41.792 134.072 42.64 132.824 43.824 131.448C44.08 131.16 44.304 131.016 44.496 131.016C44.976 131.016 45.216 131.368 45.216 132.072C42.112 136.648 40.56 140.52 40.56 143.688C40.56 145.032 41.088 145.704 42.144 145.704C43.328 145.704 44.976 144.888 47.088 143.256C48.592 142.104 49.984 140.808 51.264 139.368C52.544 137.896 53.696 136.376 54.72 134.808C55.424 133.752 55.984 132.824 56.4 132.024C56.848 131.192 57.12 130.632 57.216 130.344C57.376 129.864 57.6 129.624 57.888 129.624C58.496 129.624 58.8 129.88 58.8 130.392C58.8 130.648 58.672 131.112 58.416 131.784C58.192 132.424 57.904 133.192 57.552 134.088C57.04 135.4 56.304 137.16 55.344 139.368C54.384 141.576 53.184 144.2 51.744 147.24C49.952 151.016 48.192 154.104 46.464 156.504C45.184 158.328 43.776 159.848 42.24 161.064C40.736 162.28 39.392 162.888 38.208 162.888ZM71.0449 148.632C70.5009 148.632 70.2289 148.376 70.2289 147.864C70.2289 147.832 70.4209 147.432 70.8049 146.664C71.1889 145.896 71.7329 144.76 72.4369 143.256L74.8849 138.12C75.8769 136.04 76.5809 134.392 76.9969 133.176C77.4449 131.96 77.6689 131.176 77.6689 130.824C77.6689 130.312 77.9249 130.056 78.4369 130.056C78.9489 130.056 79.2049 130.312 79.2049 130.824C79.2049 131.24 79.0609 131.896 78.7729 132.792C78.5169 133.656 78.0849 134.776 77.4769 136.152L75.0289 141.72C81.7169 133.272 86.7569 129.048 90.1489 129.048C90.7889 129.048 91.2849 129.32 91.6369 129.864C91.9889 130.376 92.1649 130.952 92.1649 131.592C92.1649 133.128 91.0609 135.8 88.8529 139.608C90.5489 137.88 92.2609 136.152 93.9889 134.424C95.7489 132.664 97.5089 130.936 99.2689 129.24C99.7169 128.824 100.085 128.616 100.373 128.616C100.757 128.616 101.077 128.808 101.333 129.192C101.589 129.544 101.717 129.928 101.717 130.344C101.717 130.664 101.573 131.064 101.285 131.544C100.869 132.248 100.485 133.096 100.133 134.088C99.7809 135.048 99.3809 136.136 98.9329 137.352C98.4209 138.728 98.0529 139.928 97.8289 140.952C97.6049 141.976 97.4929 142.808 97.4929 143.448C97.4929 144.248 97.6849 144.84 98.0689 145.224C98.4529 145.576 98.8369 145.752 99.2209 145.752C99.8929 145.752 100.629 145.576 101.429 145.224C102.229 144.872 102.885 144.52 103.397 144.168C104.421 143.496 105.493 142.664 106.613 141.672C107.733 140.648 108.805 139.624 109.829 138.6C109.957 138.472 110.149 138.408 110.405 138.408C110.885 138.408 111.125 138.6 111.125 138.984C111.125 139.336 110.901 139.736 110.453 140.184C109.173 141.464 108.021 142.568 106.997 143.496C105.973 144.392 104.997 145.128 104.069 145.704C103.461 146.056 102.725 146.424 101.861 146.808C100.997 147.192 100.069 147.384 99.0769 147.384C98.1489 147.384 97.3649 147.096 96.7249 146.52C96.1169 145.944 95.8129 144.712 95.8129 142.824C95.8129 142.088 95.9409 141.224 96.1969 140.232C96.4529 139.208 96.8369 138.072 97.3489 136.824L99.8929 130.776L93.0289 137.688C92.2289 138.488 91.5729 139.16 91.0609 139.704C90.5489 140.248 90.1329 140.696 89.8129 141.048C89.2049 141.688 88.6609 142.312 88.1809 142.92C87.7329 143.528 87.3489 144.056 87.0289 144.504C86.8049 144.856 86.5489 145.032 86.2609 145.032C85.7169 145.032 85.4449 144.808 85.4449 144.36C85.4449 143.368 86.3409 141.08 88.1329 137.496C89.9249 133.912 90.8209 131.768 90.8209 131.064C90.8209 130.744 90.4689 130.584 89.7649 130.584C86.9169 130.584 81.8449 135.24 74.5489 144.552C73.9409 145.416 72.9329 146.712 71.5249 148.44C71.4289 148.568 71.2689 148.632 71.0449 148.632ZM113.055 147.864C111.711 147.864 110.655 147.4 109.887 146.472C109.119 145.544 108.735 144.408 108.735 143.064C108.735 140.76 109.503 138.392 111.039 135.96C111.455 135.288 111.935 134.632 112.479 133.992C113.023 133.32 113.615 132.68 114.255 132.072C115.215 131.144 116.223 130.376 117.279 129.768C118.335 129.16 119.359 128.856 120.351 128.856C121.983 128.856 122.799 129.624 122.799 131.16C122.799 133.08 121.679 134.824 119.439 136.392C117.359 137.8 115.311 138.504 113.295 138.504C112.943 138.504 112.623 138.488 112.335 138.456C112.079 138.392 111.839 138.328 111.615 138.264C111.295 138.872 111.007 139.656 110.751 140.616C110.495 141.576 110.367 142.408 110.367 143.112C110.367 145.224 111.295 146.28 113.151 146.28C114.655 146.28 116.079 146.024 117.423 145.512C118.767 144.968 120.367 143.96 122.223 142.488C123.375 141.592 124.239 140.872 124.815 140.328C125.391 139.784 126.015 139.208 126.687 138.6C126.879 138.472 127.055 138.408 127.215 138.408C127.375 138.408 127.535 138.456 127.695 138.552C127.855 138.648 127.935 138.792 127.935 138.984C127.935 139.336 127.615 139.832 126.975 140.472C126.431 140.984 125.855 141.528 125.247 142.104C124.639 142.648 123.679 143.416 122.367 144.408C120.959 145.496 119.423 146.344 117.759 146.952C116.095 147.56 114.527 147.864 113.055 147.864ZM113.007 136.968C114.031 136.968 115.007 136.808 115.935 136.488C116.863 136.168 117.743 135.704 118.575 135.096C120.431 133.72 121.359 132.424 121.359 131.208C121.359 130.664 121.023 130.392 120.351 130.392C119.071 130.392 117.583 131.176 115.887 132.744C115.055 133.512 114.367 134.216 113.823 134.856C113.311 135.464 112.831 136.136 112.383 136.872C112.575 136.936 112.783 136.968 113.007 136.968ZM128.058 140.568C127.546 140.568 127.29 140.312 127.29 139.8C127.29 138.968 128.106 137.288 129.738 134.76L133.05 129.864L135.786 125.928C136.394 125 136.874 124.2 137.226 123.528C137.578 122.824 137.786 122.248 137.85 121.8L138.042 120.552C138.202 120.008 138.458 119.736 138.81 119.736C139.354 119.736 139.626 120.024 139.626 120.6C139.626 121.656 138.922 123.4 137.514 125.832C137.354 126.12 137.05 126.6 136.602 127.272C136.186 127.944 135.514 128.968 134.586 130.344C133.658 131.688 132.378 133.56 130.746 135.96C130.586 136.184 130.394 136.472 130.17 136.824C129.978 137.176 129.754 137.576 129.498 138.024C129.37 138.312 129.258 138.6 129.162 138.888C129.066 139.176 128.97 139.448 128.874 139.704C128.746 140.28 128.474 140.568 128.058 140.568ZM126.378 147.384C125.546 147.384 125.13 146.984 125.13 146.184C125.13 145.32 125.53 144.888 126.33 144.888C127.162 144.888 127.578 145.288 127.578 146.088C127.578 146.952 127.178 147.384 126.378 147.384Z" fill="#010101"/>
<g clip-path="url(#clip0_80_52)">
<path d="M94.4282 171.294C105.733 189.208 141.375 221.208 193.501 205.893C258.659 186.75 248.319 148.841 225.65 155.578C202.982 162.314 250.902 199.803 308.735 177.456C365.703 155.442 379.281 102.674 389.303 83.0321" stroke="black" stroke-width="4" stroke-linecap="round"/>
<path d="M94.4283 171.294C105.733 189.208 141.375 221.208 193.501 205.893C258.659 186.75 248.319 148.841 225.65 155.578C202.982 162.314 250.902 199.803 308.735 177.456C365.703 155.442 379.281 102.674 389.303 83.032" stroke="black" stroke-width="4" stroke-linecap="round"/>
<path d="M379.448 87.1664L390.69 79.7593L391.464 93.7955" stroke="black" stroke-width="4" stroke-linecap="round"/>
</g>
<defs>
<clipPath id="clip0_80_52">
<rect width="335" height="131.441" fill="white" transform="translate(83 167.5) rotate(-30)"/>
</clipPath>
</defs>
</svg>
